<svg width="104" height="130" viewBox="0 0 104 130" fill="none" xmlns="http://www.w3.org/2000/svg">
<path d="M27.0002 36.0902V26.0902C27.0002 11.8102 38.1502 0.160156 52.0002 0.160156C65.8502 0.160156 77.0002 11.8102 77.0002 26.0902V36.0902H94.2802C95.0718 36.0907 95.8338 36.3913 96.4128 36.9312C96.9917 37.4712 97.3445 38.2105 97.4001 39.0002L103.34 126.5C103.392 127.327 103.116 128.141 102.571 128.764C102.026 129.388 101.256 129.771 100.43 129.83H3.78016C2.95268 129.83 2.1591 129.501 1.57398 128.916C0.988869 128.331 0.660156 127.538 0.660156 126.71V126.5L6.60015 39.0002C6.65338 38.2087 7.00514 37.4669 7.58432 36.9249C8.1635 36.3828 8.92689 36.0809 9.72016 36.0802L27.0002 36.0902ZM36.3802 36.0902H67.6302V26.0902C67.6302 16.9002 60.6302 9.53016 52.0002 9.53016C43.3702 9.53016 36.3802 16.9002 36.3802 26.0902V36.0902ZM10.4702 120.47H93.5302L88.4501 45.4702H15.5602L10.4702 120.47Z" fill="black"/>
</svg>
